<svg aria-hidden="true" style="position:absolute;width:0;height:0;overflow:hidden" xmlns="http://www.w3.org/2000/svg">
    <defs>
        <symbol id="icon-antenna" viewBox="0 0 15 15">
            <path fill="#212121" style="fill:var(--color1, #212121)" d="m14.425 10.358-3.958-3.987.439-2.164c.113.044.234.067.356.068h.003a1.012 1.012 0 1 0-.942-.673l-2.325.284L4.205.074C4.158.027 4.095 0 4.029-.001s-.128.026-.175.073l-.709.705a.249.249 0 0 0 0 .353l.382.387a7.003 7.003 0 0 0 1.181 8.279c.02.019.043.035.069.046a1.47 1.47 0 0 0-.025.256v2.9h-3c-.69.001-1.249.56-1.25 1.25v.5c0 .138.112.25.25.25h11.5a.25.25 0 0 0 .25-.25v-.5a1.252 1.252 0 0 0-1.25-1.25h-3v-1.285c.47.099.949.149 1.429.15a6.953 6.953 0 0 0 3.3-.836l.384.386c.047.047.11.074.177.075s.128-.026.175-.073l.709-.705a.25.25 0 0 0 0-.354zm-3.513-7.436a.5.5 0 1 1 .352.855h-.001a.499.499 0 0 1-.35-.855h-.001zm-.588 1.642-.281 1.381-.551-.554.831-.826zm-.284-.422-.9.895-.696-.7 1.596-.195zm1.212 9.358a.75.75 0 0 1 .75.75v.25h-11v-.25a.75.75 0 0 1 .75-.75h9.5zm-3.5-1v.5h-2.5v-.5h2.5zm-2.5-.5v-1.9c0-.606.561-1.1 1.25-1.1s1.25.494 1.25 1.1V12h-2.5zm3-.795V10.1c0-.882-.785-1.6-1.75-1.6a1.78 1.78 0 0 0-1.538.837A6.502 6.502 0 0 1 3.896 1.89l8.72 8.77a6.476 6.476 0 0 1-4.364.545zm5.292-.321L3.674.956l.354-.353 3.72 3.741c.002 0 .003.003.004.004l6.147 6.183-.355.352z"/>
            <path fill="#2196f3" style="fill:var(--color2, #2196f3)" d="M6.504 9.5h-.002A.75.75 0 0 0 6.5 11h.002a.75.75 0 0 0 .002-1.5zm.175.927a.25.25 0 0 1-.352-.354.25.25 0 0 1 .175-.073.25.25 0 0 1 .175.427h.002z"/>
        </symbol>
        <symbol id="icon-astronaut" viewBox="0 0 15 15">
            <path fill="#2196f3" style="fill:var(--color2, #2196f3)" d="M14.988 2.121a.252.252 0 0 0-.202-.17l-.896-.13-.401-.812c-.084-.171-.364-.171-.448 0l-.401.812-.896.13c-.094.014-.172.08-.202.17s-.005.19.063.256l.648.632-.153.892a.25.25 0 0 0 .362.264l.801-.421.801.421a.246.246 0 0 0 .264-.019.248.248 0 0 0 .099-.244l-.153-.892.648-.632a.251.251 0 0 0 .063-.256zm-1.155.622a.249.249 0 0 0-.072.221l.09.522-.469-.247a.253.253 0 0 0-.234 0l-.469.247.09-.522a.249.249 0 0 0-.072-.221l-.38-.37.525-.076a.248.248 0 0 0 .188-.137l.234-.475.234.475a.252.252 0 0 0 .188.137l.525.076-.379.37zM12.25 9.62h-.5v.5h.5v-.5zM12.25 10.62h-.5v.5h.5v-.5zM12.75 10.12h-.5v.5h.5v-.5zM11.75 10.12h-.5v.5h.5v-.5zM10.5 12.37H10v.5h.5v-.5zM10.5 13.37H10v.5h.5v-.5zM11 12.87h-.5v.5h.5v-.5zM10 12.87h-.5v.5h.5v-.5zM7.5 11.37H7v.5h.5v-.5zM7.5 12.37H7v.5h.5v-.5zM8 11.87h-.5v.5H8v-.5zM7 11.87h-.5v.5H7v-.5zM2.75 2.87h-.5v.5h.5v-.5zM2.75 3.87h-.5v.5h.5v-.5zM3.25 3.37h-.5v.5h.5v-.5zM2.25 3.37h-.5v.5h.5v-.5z"/>
            <path fill="#212121" style="fill:var(--color1, #212121)" d="M11.585 6.637c-.135-.182-.332-.299-.557-.33s-.448.027-.628.165l-.587.45-.89.664-.637-.254a3.252 3.252 0 0 0 1.928-2.963c0-1.792-1.464-3.25-3.263-3.25s-3.263 1.458-3.263 3.25c0 .65.194 1.254.525 1.762L2.917 6.12h-.002l-.011.002a.232.232 0 0 0-.073.015l-.018.006-.009.003-1.516.748-.888.427a.219.219 0 0 0-.03.016.834.834 0 0 0 .215 1.493.845.845 0 0 0 .646-.06l.651-.346 1.061-.548.636-.004-2.551 2.539h-.001l-.628.625a.775.775 0 0 0 0 1.105.784.784 0 0 0 1.106 0l.616-.614.816-.609.422.42-.826.822-.001.001-.628.625a.775.775 0 0 0 0 1.105.785.785 0 0 0 1.106 0l1.632-1.625v-.001l.473-.469-.002-.002.01-.007 2.422-2.652 1.627.231a.243.243 0 0 0 .123-.015l.023-.011c.009-.004.018-.007.027-.013l1.506-1c.006-.004.009-.01.014-.014s.014-.007.019-.012l.596-.558a.833.833 0 0 0 .099-1.107zM.999 8.33c-.081.044-.173.052-.262.024a.334.334 0 0 1-.1-.591l.616-.296.21.615-.465.247zm1.639-.857-.726.375-.206-.602.95-.469-.019.696zM9.716 4.37c0 .431-.103.837-.281 1.2l-1.96-.89a.876.876 0 0 0-.369-.651l.686-2.278A2.755 2.755 0 0 1 9.716 4.37zm-5.526 0a2.76 2.76 0 0 1 3.112-2.726l-.671 2.228-.027-.003c-.484 0-.878.392-.878.875a.877.877 0 0 0 1.637.432l1.811.823a2.76 2.76 0 0 1-4.983-1.63zm2.792.375c0 .207-.17.375-.378.375s-.378-.168-.378-.375.169-.375.378-.375.378.168.378.375zm-5.827 7.042a.284.284 0 0 1-.483-.198c0-.075.029-.145.083-.198l.451-.449.399.397-.449.447zm1.507 1.75a.285.285 0 0 1-.484-.198.27.27 0 0 1 .083-.197l.451-.45.399.397-.45.448zm1.632-1.626h-.001l-.827.825-.399-.397.826-.823h.001c.019-.019.03-.041.042-.063.003-.007.009-.012.012-.019.008-.019.009-.04.012-.06.001-.012.007-.022.007-.034 0-.017-.006-.033-.009-.049-.003-.015-.003-.03-.009-.045-.009-.024-.026-.044-.043-.065-.005-.006-.006-.013-.012-.018s0-.001 0-.001l-.753-.75c-.008-.008-.018-.011-.027-.018-.013-.01-.026-.02-.041-.027s-.029-.011-.044-.015c-.016-.004-.031-.008-.048-.009-.015-.001-.03.001-.045.002-.017.002-.032.004-.049.009s-.03.013-.044.021c-.009.005-.02.007-.029.014l-.831.621-.422-.421L2.686 9.47l2.044 2.01-.435.431zM7.49 8.622c-.007-.001-.014.002-.021.001a.245.245 0 0 0-.054.003c-.014.003-.028.005-.041.01a.267.267 0 0 0-.084.051c-.006.005-.013.008-.019.014l-2.202 2.412L3.04 9.118l1.328-1.321a.25.25 0 0 0 .001-.354.248.248 0 0 0-.179-.073l-1.04.006.013-.753 1.455.013a3.255 3.255 0 0 0 2.935.927c.019.015.037.03.061.04l1.13.45.155.77-1.407-.2zm1.895.084-.147-.73.678-.506.444.589-.975.648zm1.759-1.327-.393.368-.436-.579.39-.299c.073-.056.165-.079.255-.067a.335.335 0 0 1 .185.577z"/>
            <path fill="#212121" style="fill:var(--color1, #212121)" d="m6.376 8.693-1.005-1a.25.25 0 0 0-.353 0l-1.004 1a.247.247 0 0 0 0 .354l1.004 1c.049.048.113.073.177.073s.128-.024.176-.073l1.005-1c.047-.047.074-.111.074-.177s-.027-.13-.074-.177zm-1.181.824-.65-.647.65-.647.65.647-.65.647zM8.046 2.377l-.121.486c.033.008.815.212.815 1.007h.5c0-.946-.781-1.39-1.194-1.493zM9.24 4.37h-.5v.5h.5v-.5z"/>
        </symbol>
        <symbol id="icon-clock" viewBox="0 0 15 15">
            <path fill="#212121" style="fill:var(--color1, #212121)" d="M14.67 7.172C14.669 3.21 11.457-.001 7.494 0S.321 3.213.322 7.176a7.176 7.176 0 0 0 4.992 6.833.314.314 0 0 0 .249-.031.299.299 0 0 0 .133-.167l1.812-5.742a.897.897 0 1 0-.393-1.703L4.722 3.972a.298.298 0 0 0-.423.422l2.392 2.395a.878.878 0 0 0 .251 1.082l-1.726 5.472A6.584 6.584 0 0 1 9.766.989a6.583 6.583 0 0 1 .404 12.19l-.187-.879a.298.298 0 0 0-.491-.161l-1.799 1.606a.299.299 0 0 0 .109.508l2.296.733a.3.3 0 0 0 .384-.347l-.183-.862a7.15 7.15 0 0 0 4.373-6.604zm-7.174-.298a.3.3 0 1 1 0 .598.3.3 0 0 1 0-.598zm.985 6.967 1.024-.913.283 1.331-1.306-.418z"/>
            <path fill="#2196f3" style="fill:var(--color2, #2196f3)" d="M7.197 1.493v.598a.3.3 0 0 0 .598 0v-.598a.3.3 0 0 0-.598 0zM1.817 6.874a.3.3 0 0 0 0 .598h.598a.3.3 0 0 0 0-.598h-.598zM13.176 7.471a.3.3 0 0 0 0-.598h-.598a.3.3 0 0 0 0 .598h.598z"/>
        </symbol>
        <symbol id="icon-diagram" viewBox="0 0 15 15">
            <path fill="#2196f3" style="fill:var(--color2, #2196f3)" d="M6.996 7.015h.5v2.249h-.5V7.015zM8.995 8.014h.5v1.249h-.5V8.014zM4.997 8.764h.5v.5h-.5v-.5zM3.498 8.514h.5v.75h-.5v-.75z"/>
            <path fill="#212121" style="fill:var(--color1, #212121)" d="M.75 13.261h11.994a.75.75 0 0 0 .75-.75v-.999a.75.75 0 0 0-.75-.75h-.25V4.531l1.419-1.345a.754.754 0 1 0-.349-.359l-1.069 1.014v-.576a.75.75 0 0 0-.75-.75H1.75a.75.75 0 0 0-.75.75v7.496H.75a.75.75 0 0 0-.75.75v.999c0 .414.336.75.75.75zM14.243 2.267a.25.25 0 1 1 0 .5.25.25 0 0 1 0-.5zm-12.744 1a.25.25 0 0 1 .25-.25h9.995a.25.25 0 0 1 .25.25v1.049l-.5.475V3.767a.25.25 0 0 0-.25-.25H2.249a.25.25 0 0 0-.25.25v6.247c0 .138.112.25.25.25h8.995a.25.25 0 0 0 .25-.25V5.479l.5-.474v5.758H1.499V3.267zm2.249 3.248a.75.75 0 1 0 .519 1.288l.869.436a.249.249 0 0 0 .298-.057L7.28 6.105l1.815 1.36a.251.251 0 0 0 .322-.018l1.577-1.494v3.811H2.498V4.017h8.496v1.247L9.226 6.938l-1.83-1.372a.25.25 0 0 0-.337.034L5.187 7.706l-.7-.35a.904.904 0 0 0 .01-.091.75.75 0 0 0-.75-.75zm.25.75a.25.25 0 1 1-.5 0 .25.25 0 0 1 .5 0zm1.499 3.997h2.499v.25a.25.25 0 0 1-.25.25H5.747a.25.25 0 0 1-.25-.25v-.25zm-4.997.25a.25.25 0 0 1 .25-.25h4.248v.25c0 .414.336.75.75.75h1.999a.75.75 0 0 0 .75-.75v-.25h4.248a.25.25 0 0 1 .25.25v.999a.25.25 0 0 1-.25.25H.751a.25.25 0 0 1-.25-.25v-.999z"/>
        </symbol>
        <symbol id="icon-envelope" viewBox="0 0 20 15">
            <path d="M18.125 0H1.875A1.877 1.877 0 0 0 0 1.875v11.25C0 14.159.841 15 1.875 15h16.25A1.877 1.877 0 0 0 20 13.125V1.875A1.877 1.877 0 0 0 18.125 0zm0 1.25c.085 0 .166.018.24.048L10 8.548l-8.365-7.25a.62.62 0 0 1 .24-.048h16.25zm0 12.5H1.875a.625.625 0 0 1-.625-.625V2.619l8.34 7.228a.626.626 0 0 0 .82 0l8.34-7.228v10.506c0 .345-.28.625-.625.625z"/>
        </symbol>
        <symbol id="icon-facebook" viewBox="0 0 15 15">
            <path  d="M9.998 2.491h1.369V.106A17.525 17.525 0 0 0 9.372 0C7.398 0 6.045 1.242 6.045 3.524v2.101H3.866v2.666h2.179V15h2.671V8.292h2.091l.332-2.666H8.716V3.789c.001-.771.208-1.298 1.282-1.298z"/>
        </symbol>
        <symbol id="icon-instagram" viewBox="0 0 15 15">
            <path  d="M14.985 4.41c-.035-.797-.164-1.345-.349-1.82a3.676 3.676 0 0 0-.867-1.33 3.682 3.682 0 0 0-1.327-.864c-.478-.185-1.023-.314-1.82-.349C9.819.009 9.564 0 7.528 0S5.237.009 4.437.044c-.797.035-1.345.164-1.82.349-.504.19-.955.484-1.33.867a3.682 3.682 0 0 0-.864 1.327C.238 3.065.109 3.61.074 4.407.036 5.21.027 5.465.027 7.501s.009 2.291.044 3.091c.035.797.164 1.345.349 1.82.19.504.486.955.867 1.33.375.381.829.677 1.327.864.478.185 1.023.314 1.82.349.8.035 1.055.044 3.091.044s2.291-.009 3.091-.044c.797-.035 1.345-.164 1.82-.349a3.839 3.839 0 0 0 2.195-2.195c.184-.478.314-1.023.349-1.82.035-.8.044-1.055.044-3.091s-.003-2.291-.038-3.091zm-1.35 6.124c-.032.733-.155 1.128-.258 1.392a2.49 2.49 0 0 1-1.424 1.424c-.264.103-.662.226-1.392.258-.791.035-1.028.044-3.03.044s-2.242-.009-3.03-.044c-.733-.032-1.128-.155-1.392-.258a2.305 2.305 0 0 1-.861-.56 2.33 2.33 0 0 1-.56-.861c-.103-.264-.226-.662-.258-1.392-.035-.791-.044-1.029-.044-3.03s.009-2.242.044-3.03c.032-.733.155-1.128.258-1.392.12-.325.311-.621.563-.862a2.33 2.33 0 0 1 .861-.56c.264-.103.662-.226 1.392-.258.791-.035 1.029-.044 3.03-.044 2.004 0 2.242.009 3.03.044.733.032 1.128.155 1.392.258.325.12.621.311.861.56.249.243.439.536.56.862.103.264.226.662.258 1.392.035.791.044 1.028.044 3.03s-.009 2.236-.044 3.027z"/>
            <path  d="M7.528 3.648a3.854 3.854 0 0 0 0 7.706 3.854 3.854 0 0 0 0-7.706zm0 6.353a2.5 2.5 0 1 1 0-5 2.5 2.5 0 0 1 0 5zM12.433 3.496a.9.9 0 1 1-1.8 0 .9.9 0 0 1 1.8 0z"/>
        </symbol>
        <symbol id="icon-linkedin" viewBox="0 0 15 15">
            <path  d="M14.996 15v-.001H15V9.498c0-2.691-.579-4.764-3.726-4.764-1.513 0-2.527.83-2.942 1.617h-.044V4.985H5.305v10.014h3.106V10.04c0-1.306.247-2.568 1.864-2.568 1.593 0 1.617 1.49 1.617 2.652V15h3.103zM.248 4.986h3.11V15H.248V4.986zM1.801 0C.807 0 0 .807 0 1.801s.807 1.818 1.801 1.818c.994 0 1.801-.824 1.801-1.818S2.795 0 1.801 0z"/>
        </symbol>
        <symbol id="icon-Logo" viewBox="0 0 26 15">
            <path  d="m9.5 1.75 1.752 1.659L8 3.407v8.047h8.5V8.377l1.75 1.657V1.751H9.5zm6.923 6.432-4.967-4.703h4.967v4.703zm-1.542 2.094H9.345V4.864h.391v5.045h5.144v.366zm-4.229 2.249-.204.421-.204-.421h-.172l.298.562v.327h.155v-.327l.298-.562h-.171zm.257.888.072-.207h.344l.073.207h.161l-.336-.889h-.139l-.336.889h.161zm.244-.7.129.369h-.258l.129-.369zm.815.348a.233.233 0 0 0 .045.296c.053.047.123.07.211.07s.164-.024.227-.071l.05.059h.172l-.131-.154a.446.446 0 0 0 .077-.269h-.129c0 .06-.012.114-.037.163l-.172-.203.06-.044c.043-.031.073-.062.092-.093s.028-.065.028-.103c0-.056-.021-.103-.062-.141s-.094-.057-.159-.057c-.072 0-.129.02-.171.061s-.063.095-.063.165c0 .028.007.058.02.089s.038.068.073.111a.501.501 0 0 0-.132.123zm.401.196a.229.229 0 0 1-.14.05c-.044 0-.08-.013-.106-.038s-.04-.059-.04-.1c0-.048.024-.09.073-.127l.019-.013.194.229zm-.16-.393c-.042-.052-.063-.095-.063-.129 0-.03.009-.054.026-.074s.04-.029.069-.029c.027 0 .049.008.067.025s.026.036.026.059a.11.11 0 0 1-.038.086l-.019.015-.068.046zm1.447.482a.321.321 0 0 0 .105-.222h-.154c-.008.063-.027.109-.058.136s-.076.041-.137.041c-.066 0-.117-.025-.151-.076s-.051-.124-.051-.22v-.079c.001-.095.019-.167.055-.215s.088-.074.155-.074c.058 0 .102.014.131.043s.049.074.056.138h.154c-.01-.097-.045-.173-.104-.226s-.139-.08-.237-.08a.337.337 0 0 0-.321.2.518.518 0 0 0-.045.222v.083c.001.082.016.154.046.215s.071.11.124.143c.054.033.117.05.187.05a.36.36 0 0 0 .244-.079zm.907-.124a.547.547 0 0 0 .045-.229v-.049c0-.087-.016-.163-.046-.228s-.074-.116-.13-.15c-.056-.035-.12-.053-.192-.053s-.137.018-.193.053c-.056.035-.099.086-.13.152s-.046.143-.046.229v.05c0 .085.016.16.046.225a.345.345 0 0 0 .324.203.367.367 0 0 0 .193-.052.342.342 0 0 0 .129-.151zm-.165-.503a.39.39 0 0 1 .056.226v.046c0 .1-.019.176-.056.228s-.089.078-.157.078-.12-.027-.159-.08-.057-.129-.057-.226v-.051c.001-.096.02-.169.057-.222s.09-.079.157-.079c.068 0 .121.026.158.079z"/>
        </symbol>
        <symbol id="icon-Logo-1" viewBox="0 0 26 15">
            <path  d="M12.528 1.484h-.034c-.052-.003-.105-.004-.157-.006h-.114a6.112 6.112 0 0 0-.324.008 7.063 7.063 0 0 0-2.629.671l-.108.052v5.535l.253-.086a9.93 9.93 0 0 1 .703-.209 8.59 8.59 0 0 1 2.024-.269v.727c-.09.001-.178.003-.266.008h-.021a8.12 8.12 0 0 0-3.412.962V1.778a7.406 7.406 0 0 1 1.946-.791 7.415 7.415 0 0 1 1.834-.236h.107c.128.003.252.009.369.018.308.022.614.07.914.146v.716a5.748 5.748 0 0 0-.885-.134l-.018-.002c-.062-.005-.123-.011-.181-.011zm1.26.731c.159.012.323.018.49.018a7.84 7.84 0 0 0 1.928-.247 7.912 7.912 0 0 0 1.854-.723v6.973a7.426 7.426 0 0 1-1.947.791 7.511 7.511 0 0 1-1.834.236 5.572 5.572 0 0 1-1.391-.164V2.081a5.532 5.532 0 0 0 .9.135zm3.549.054-.253.085a8.617 8.617 0 0 1-2.805.48c-.165 0-.317-.004-.464-.014l-.202-.013v5.694l.173.015a5.7 5.7 0 0 0 .493.021 6.702 6.702 0 0 0 1.655-.214 6.927 6.927 0 0 0 1.293-.465l.108-.052V2.269zM8.934 11.303a.368.368 0 0 0-.282-.114.415.415 0 0 0-.29.114.401.401 0 0 0-.111.284v.949a.467.467 0 0 0 .037.195.372.372 0 0 0 .095.127.323.323 0 0 0 .13.067c.046.013.094.02.142.02a.351.351 0 0 0 .153-.033.393.393 0 0 0 .24-.366v-.106H8.8v.085a.206.206 0 0 1-.015.085.147.147 0 0 1-.036.053.144.144 0 0 1-.052.027.154.154 0 0 1-.052.009.127.127 0 0 1-.116-.051.226.226 0 0 1-.033-.127v-.884a.303.303 0 0 1 .03-.142.126.126 0 0 1 .122-.057.133.133 0 0 1 .111.053.2.2 0 0 1 .041.127v.082h.245v-.097a.469.469 0 0 0-.03-.166.381.381 0 0 0-.083-.134zM10.407 11.292a.436.436 0 0 0-.43-.077.384.384 0 0 0-.227.211.448.448 0 0 0-.036.184v.91a.438.438 0 0 0 .036.186.362.362 0 0 0 .096.127.392.392 0 0 0 .131.08c.047.017.098.026.148.027s.101-.009.148-.027a.408.408 0 0 0 .228-.207.44.44 0 0 0 .036-.186v-.91a.413.413 0 0 0-.13-.317zm-.116 1.227c.002.024-.001.049-.01.071s-.022.043-.04.06a.184.184 0 0 1-.234 0 .162.162 0 0 1-.05-.131v-.91c-.002-.024.001-.049.01-.071s.022-.043.04-.06a.184.184 0 0 1 .234 0c.017.017.031.037.04.06s.012.047.01.071v.91zM12.342 12.925v-1.722h-.238l-.313.912h-.004l-.316-.912h-.236v1.722h.246v-1.048h.004l.241.741h.123l.243-.741h.004v1.048h.246zM13.74 11.323a.347.347 0 0 0-.139-.094.542.542 0 0 0-.178-.027h-.366v1.722h.245v-.673h.126a.454.454 0 0 0 .221-.047.407.407 0 0 0 .191-.282c.01-.065.014-.13.013-.196a1.017 1.017 0 0 0-.024-.246.357.357 0 0 0-.09-.158zm-.127.526a.218.218 0 0 1-.023.09.136.136 0 0 1-.063.06.256.256 0 0 1-.116.022h-.112v-.585h.126a.237.237 0 0 1 .111.022.144.144 0 0 1 .058.064c.013.03.021.063.022.096v.114c0 .04.003.081 0 .118h-.003zM14.902 11.203h-.201l-.379 1.722h.245l.072-.37h.335l.072.37h.245l-.389-1.722zm-.227 1.117.121-.624h.004l.12.624h-.245zM16.487 12.24h-.004l-.371-1.038h-.236v1.722h.245v-1.036h.005l.375 1.036h.231v-1.722h-.245v1.038zM17.987 11.203l-.197.685h-.005l-.197-.685h-.26l.337.994v.728h.245v-.728l.337-.994h-.26zM8.25 13.411h.118v.332h.08v-.332h.118v-.068H8.25v.068zM9.244 13.343l-.155.4h.085l.033-.091h.159l.034.091h.087l-.159-.4h-.085zm-.012.242.054-.148.054.148h-.109zM10.227 13.596h.092v.052a.155.155 0 0 1-.095.034c-.016.001-.032-.002-.047-.009s-.028-.017-.038-.029a.167.167 0 0 1-.03-.104c0-.089.039-.134.115-.134.02-.002.04.003.057.015s.028.029.034.049l.079-.015c-.017-.078-.073-.118-.169-.118a.203.203 0 0 0-.14.052.198.198 0 0 0-.058.154.22.22 0 0 0 .051.15.194.194 0 0 0 .152.058.235.235 0 0 0 .169-.064v-.158h-.173v.067zM11.231 13.343h-.081v.4h.28v-.068h-.199v-.332zM12.079 13.343h-.081v.4h.081v-.4zM12.909 13.61l-.164-.267h-.078v.4h.075v-.261l.161.261h.08v-.4h-.074v.267zM13.659 13.567h.199v-.068h-.199v-.088h.214v-.068h-.295v.4h.304v-.068h-.223v-.108zM15.478 13.501h-.157v-.158h-.08v.4h.08v-.175h.157v.175h.08v-.4h-.08v.158zM16.233 13.567h.2v-.068h-.2v-.088h.215v-.068h-.295v.4h.303v-.068h-.223v-.108zM17.256 13.567c.07-.011.105-.048.105-.111.002-.017-.001-.034-.007-.05s-.018-.029-.032-.039a.237.237 0 0 0-.117-.024h-.169v.4h.08v-.167h.016a.108.108 0 0 1 .05.009.071.071 0 0 1 .028.029l.087.127h.096l-.049-.078a.282.282 0 0 0-.089-.096zm-.081-.055h-.059v-.1h.063a.208.208 0 0 1 .082.01c.006.005.01.012.014.019s.004.015.004.023-.002.015-.006.022-.009.013-.015.017a.25.25 0 0 1-.082.01zM18.027 13.567h.199v-.068h-.199v-.088h.215v-.068h-.296v.4h.304v-.068h-.223v-.108z"/>
        </symbol>
        <symbol id="icon-Logo-2" viewBox="0 0 26 15">
            <path  d="m9.102 12.275.012.002a.02.02 0 0 1 .01.006l.055.052a.454.454 0 0 1-.153.099.614.614 0 0 1-.217.036.591.591 0 0 1-.205-.033.44.44 0 0 1-.254-.239.475.475 0 0 1-.035-.185.437.437 0 0 1 .307-.425.626.626 0 0 1 .211-.033.59.59 0 0 1 .196.03.52.52 0 0 1 .147.084l-.046.056c-.003.004-.007.007-.012.01s-.012.005-.018.004a.036.036 0 0 1-.02-.006l-.025-.015-.034-.019a.366.366 0 0 0-.108-.033.552.552 0 0 0-.081-.006.428.428 0 0 0-.151.025.322.322 0 0 0-.196.181.373.373 0 0 0-.028.147.383.383 0 0 0 .028.149.32.32 0 0 0 .189.18.416.416 0 0 0 .14.024.57.57 0 0 0 .083-.005.321.321 0 0 0 .18-.077.04.04 0 0 1 .026-.009zM10.676 12.013a.452.452 0 0 1-.037.184c-.022.053-.057.102-.103.143s-.1.073-.161.094a.666.666 0 0 1-.414 0c-.06-.021-.115-.053-.16-.094s-.081-.091-.104-.145a.482.482 0 0 1 0-.369.418.418 0 0 1 .264-.236.652.652 0 0 1 .414 0c.061.021.115.053.161.094s.08.09.103.143a.456.456 0 0 1 .037.185zm-.143 0a.398.398 0 0 0-.026-.148.298.298 0 0 0-.188-.181.484.484 0 0 0-.301 0 .314.314 0 0 0-.189.181.43.43 0 0 0 0 .296c.015.041.04.079.074.111.032.03.071.054.115.069a.484.484 0 0 0 .301 0 .318.318 0 0 0 .115-.069.31.31 0 0 0 .073-.111.398.398 0 0 0 .026-.148zM11.75 12.169l.014.033c.005-.012.01-.023.016-.033l.018-.033.348-.55c.007-.009.013-.015.02-.017a.136.136 0 0 1 .029-.003h.103v.895h-.122V11.744l-.35.558c-.004.008-.012.015-.021.02s-.019.008-.03.007h-.02c-.011 0-.021-.002-.03-.007s-.016-.012-.02-.02l-.361-.561v.718h-.118v-.893h.103c.01 0 .019 0 .029.003.008.004.015.01.019.017l.356.551c.007.01.013.021.018.032zM13.061 12.124v.335h-.136v-.894h.304a.648.648 0 0 1 .17.02.34.34 0 0 1 .12.056c.03.024.054.054.068.088a.264.264 0 0 1 .023.114.242.242 0 0 1-.099.203.341.341 0 0 1-.121.059.568.568 0 0 1-.164.021l-.165-.002zm0-.096h.165a.381.381 0 0 0 .106-.014.226.226 0 0 0 .076-.038.163.163 0 0 0 .046-.059.164.164 0 0 0 .016-.075c.002-.025-.003-.05-.014-.073s-.027-.044-.048-.061a.297.297 0 0 0-.183-.048h-.165v.368zM14.893 12.461h-.108c-.011 0-.021-.003-.03-.008s-.014-.013-.018-.021l-.093-.216h-.466l-.096.216a.047.047 0 0 1-.017.02.056.056 0 0 1-.031.009h-.108l.409-.895h.142l.414.895zm-.675-.333h.384l-.162-.364a.653.653 0 0 1-.031-.084l-.016.047a.504.504 0 0 1-.015.038l-.161.364zM15.482 11.57a.053.053 0 0 1 .02.016l.596.675V11.566h.122v.895h-.068c-.01 0-.019-.002-.028-.005s-.016-.01-.022-.017l-.596-.674v.696h-.122v-.895h.072c.008 0 .017.001.025.004zM17.226 12.105v.355h-.136v-.355l-.377-.539h.122a.041.041 0 0 1 .029.008.084.084 0 0 1 .018.02l.236.348a.505.505 0 0 1 .042.079l.018-.038c.007-.014.014-.028.023-.041l.232-.35a.107.107 0 0 1 .018-.019.05.05 0 0 1 .029-.009h.123l-.378.541zM11.683 10.064a5 5 0 0 0 .18.017c.92-.357 1.698-.943 2.237-1.682s.815-1.601.794-2.476l-1.014-.881c.206.932.11 1.895-.278 2.782s-1.053 1.663-1.919 2.24z"/>
            <path  d="m11.321 10.023.027.005c.926-.575 1.632-1.379 2.027-2.307s.46-1.937.187-2.898l-1.444-1.254c.584 1.031.819 2.185.678 3.327s-.653 2.227-1.475 3.127zM16.217 6.957c-.245.962-.841 1.829-1.699 2.473-.25.189-.521.358-.807.503.698-.178 1.34-.494 1.876-.922s.952-.957 1.215-1.547l-.585-.508z"/>
            <path  d="m15.987 6.815-.834-.724c-.016.826-.286 1.633-.783 2.337s-1.201 1.28-2.04 1.668h.004c.187 0 .374-.01.56-.029.784-.278 1.477-.721 2.017-1.288s.909-1.242 1.076-1.964zM11.442 3.04l-.994-.865c-.889.298-1.654.823-2.194 1.506s-.831 1.49-.833 2.318c.003.915.358 1.803 1.007 2.523s1.557 1.232 2.579 1.454c.912-.965 1.446-2.159 1.524-3.406s-.303-2.484-1.089-3.53zM18.285 6.682c-.004-1.086-.502-2.126-1.385-2.894s-2.081-1.2-3.33-1.203a5.278 5.278 0 0 0-1.688.273l6.089 5.29c.208-.468.315-.965.315-1.466z"/>
        </symbol>
        <symbol id="icon-Logo-3" viewBox="0 0 26 15">
            <path  d="M6.037 5.276h-.001c-.6 0-1.085.432-1.085.965v.001c0 .533.486.965 1.085.965h.001c.6 0 1.085-.432 1.085-.965v-.001c0-.533-.486-.965-1.085-.965zM14.049 4.967c-.002-.74-.333-1.449-.922-1.973s-1.387-.818-2.219-.82c-.833.001-1.631.296-2.22.819s-.921 1.233-.922 1.973v4.081s6.283-.622 6.284-4.08v-.001zM2.75 10.387c.001.515.232 1.008.642 1.372s.965.569 1.544.571c.579-.002 1.134-.207 1.544-.571s.64-.857.642-1.372V7.548s-4.372.433-4.372 2.839zm2.186.509c-.113 0-.224-.03-.318-.086s-.168-.135-.211-.228c-.043-.093-.055-.195-.033-.294s.077-.189.157-.26c.08-.071.182-.12.293-.139s.226-.01.331.029c.105.038.194.104.257.187a.467.467 0 0 1-.071.644.63.63 0 0 1-.406.15v-.002zM9.354 10.616h-.422v.436h-.22V9.986h.694v.178h-.475v.275h.422v.177zm1.057-.073c0 .105-.019.197-.056.276s-.09.14-.16.183c-.069.043-.148.064-.237.064s-.167-.021-.237-.064c-.069-.042-.123-.103-.161-.182s-.057-.17-.058-.272v-.053c0-.105.019-.197.056-.277a.424.424 0 0 1 .397-.248c.089 0 .168.021.237.064.069.042.123.104.16.184s.057.172.057.276v.048zm-.223-.049c0-.112-.02-.197-.06-.255s-.097-.087-.171-.087c-.074 0-.131.029-.171.086s-.06.141-.061.252v.052c0 .109.02.193.06.253s.098.09.173.09c.074 0 .13-.029.17-.086s.06-.143.06-.253v-.052zm.935.278c0-.041-.015-.073-.044-.095s-.082-.046-.158-.07a1.177 1.177 0 0 1-.181-.073c-.121-.065-.182-.154-.182-.264 0-.058.016-.109.048-.154s.079-.081.14-.106a.535.535 0 0 1 .409.004.31.31 0 0 1 .188.287h-.22c0-.049-.015-.087-.046-.114s-.074-.041-.13-.041c-.054 0-.095.011-.125.034s-.045.052-.045.089c0 .035.017.064.052.087s.087.045.155.066c.125.038.216.084.273.14s.086.125.086.208c0 .092-.035.165-.105.218s-.164.078-.282.078c-.082 0-.157-.015-.224-.045s-.119-.072-.155-.124a.32.32 0 0 1-.053-.182h.22c0 .118.07.177.211.177.052 0 .093-.011.122-.031s.044-.051.044-.089zm1.173-.609h-.327v.888h-.22v-.888h-.322v-.178h.869v.178zm.767.427h-.422v.286h.495v.176h-.715V9.986h.713v.178h-.494v.254h.422v.172zm.597.071h-.175v.39h-.22V9.985h.396c.126 0 .223.028.292.084s.103.135.103.238c0 .073-.016.134-.048.182s-.079.087-.143.116l.231.436v.01h-.236l-.2-.39zm-.175-.178h.177c.055 0 .098-.014.128-.042s.045-.067.045-.116c0-.05-.014-.09-.043-.119s-.072-.043-.131-.043h-.177v.32zm1.332.193v.376h-.22V9.986h.416c.08 0 .15.015.211.044a.324.324 0 0 1 .19.309c0 .105-.036.187-.108.248s-.17.09-.297.09h-.193zm0-.178h.196c.058 0 .102-.014.133-.041s.046-.066.046-.117c0-.052-.015-.094-.046-.127s-.073-.049-.127-.05h-.201v.335zm1.39.092h-.422v.286h.495v.176h-.715V9.986h.713v.178h-.494v.254h.422v.172zm1.019-.427h-.327v.888h-.22v-.888h-.322v-.178h.869v.178zm.768.427h-.422v.286h.495v.176h-.715V9.986h.713v.178h-.494v.254h.422v.172zm.597.071h-.175v.39h-.22V9.985h.396c.126 0 .223.028.292.084s.103.135.103.238c0 .073-.016.134-.048.182s-.079.087-.143.116l.231.436v.01h-.236l-.2-.39zm-.175-.178h.177c.055 0 .098-.014.128-.042s.045-.067.045-.116c0-.05-.014-.09-.043-.119s-.072-.043-.131-.043h-.176v.32zm1.291.289c0-.041-.015-.073-.044-.095s-.082-.046-.158-.07a1.177 1.177 0 0 1-.181-.073c-.121-.065-.182-.154-.182-.264 0-.058.016-.109.048-.154s.079-.081.14-.106a.535.535 0 0 1 .409.004.31.31 0 0 1 .188.287h-.22c0-.049-.015-.087-.046-.114s-.074-.041-.13-.041c-.054 0-.095.011-.125.034s-.045.052-.045.089c0 .035.017.064.052.087s.087.045.155.066c.125.038.216.084.273.14s.086.125.086.208c0 .092-.035.165-.105.218s-.164.078-.282.078c-.082 0-.157-.015-.224-.045s-.119-.072-.155-.124a.32.32 0 0 1-.053-.182h.22c0 .118.07.177.211.177.052 0 .093-.011.122-.031s.044-.051.044-.089z"/>
        </symbol>
        <symbol id="icon-Logo-4" viewBox="0 0 26 15">
            <path  d="M6.689 11.184a.36.36 0 0 1 .092.244c.003.058-.008.116-.033.169s-.062.101-.109.139a.657.657 0 0 1-.413.113H5.5v-1.548h.711c.14-.009.28.028.394.103.046.035.082.08.106.13s.035.105.032.16a.34.34 0 0 1-.083.237.395.395 0 0 1-.216.121.423.423 0 0 1 .245.132zm-.851-.234h.304a.309.309 0 0 0 .193-.051.176.176 0 0 0 .065-.152.18.18 0 0 0-.065-.151.314.314 0 0 0-.199-.052h-.299v.406zm.527.594a.183.183 0 0 0 .072-.157c.002-.03-.004-.06-.017-.087s-.032-.052-.057-.072a.338.338 0 0 0-.206-.056h-.319v.426h.323a.337.337 0 0 0 .204-.054zM8.143 11.849l-.396-.605h-.149v.605h-.34v-1.548h.644a.675.675 0 0 1 .448.132.466.466 0 0 1 .048.64.535.535 0 0 1-.307.157l.421.619h-.37zm-.545-.816h.278c.193 0 .29-.078.29-.234.002-.032-.003-.064-.016-.094s-.031-.057-.055-.08a.325.325 0 0 0-.219-.063h-.282l.003.471zM10.003 11.538h-.678l-.12.312h-.357l.623-1.53h.386l.62 1.53h-.357l-.117-.312zm-.091-.235-.248-.653-.248.653h.495zM12.331 11.849h-.338l-.757-1.053v1.053h-.337v-1.548h.337l.757 1.059v-1.059h.338v1.548zM14.258 11.479a.701.701 0 0 1-.306.273c-.147.068-.31.101-.475.098h-.601v-1.548h.601c.164-.004.327.029.475.095a.7.7 0 0 1 .306.27.834.834 0 0 1 0 .812zm-.386-.037c.096-.103.149-.234.149-.369s-.053-.267-.149-.369a.628.628 0 0 0-.423-.132h-.235v1.002h.235a.619.619 0 0 0 .423-.132zM10.214 1.692s4.36 1.507 4.267 3.688v3.689s-4.356-1.508-4.266-3.689l-.002-3.688zM18.365 8.205a6.327 6.327 0 0 1 2.77-.935V6.115c-1.145.404-2.117 1.137-2.77 2.089z"/>
            <path d="M17.87 8.552c.674-1.242 1.842-2.201 3.265-2.679V2.546s-6.209 2.147-6.077 5.252v5.252s.277-.096.712-.276c0-.168 0-.337.02-.507.128-1.442.877-2.778 2.081-3.714z"/>
            <path  d="M17.28 10.503c.033-.364.105-.724.217-1.075a4.853 4.853 0 0 0-1.315 3.172c.353-.155.763-.349 1.194-.576a4.985 4.985 0 0 1-.097-1.521zM17.527 10.522c-.041.46-.016.923.077 1.377 1.696-.929 3.602-2.365 3.529-4.101v-.151a5.793 5.793 0 0 0-3.227 1.381 4.817 4.817 0 0 0-.378 1.494z"/>
        </symbol>
        <symbol id="icon-Logo-5" viewBox="0 0 26 15">
            <path  d="M13.356 6.852a.733.733 0 0 1-.151-.497v-.721c0-.221.05-.389.15-.504s.272-.172.516-.172c.229 0 .392.049.488.147a.595.595 0 0 1 .144.431v.169h-.41v-.172a.95.95 0 0 0-.012-.168.166.166 0 0 0-.059-.1.239.239 0 0 0-.149-.039.248.248 0 0 0-.156.041.188.188 0 0 0-.068.11.825.825 0 0 0-.016.178v.875a.454.454 0 0 0 .053.246c.02.026.049.047.082.06s.07.018.106.014a.22.22 0 0 0 .145-.04.178.178 0 0 0 .061-.106.938.938 0 0 0 .013-.175v-.177h.41v.162a.655.655 0 0 1-.142.453c-.094.107-.255.161-.491.161s-.414-.057-.516-.176zM15.064 6.859c-.104-.112-.155-.276-.155-.492v-.758c0-.214.052-.376.155-.486s.277-.165.52-.164c.241 0 .414.055.517.164s.156.272.156.486v.758c0 .214-.053.378-.158.491s-.277.169-.516.169-.415-.057-.52-.169zm.711-.181a.42.42 0 0 0 .049-.224v-.928a.415.415 0 0 0-.048-.22c-.021-.027-.05-.047-.084-.06s-.071-.017-.108-.013c-.037-.004-.074 0-.108.013s-.063.034-.084.06a.406.406 0 0 0-.049.22v.933a.42.42 0 0 0 .049.224c.024.024.053.043.087.056a.292.292 0 0 0 .21 0 .255.255 0 0 0 .087-.056v-.004zM16.751 4.981h.442l.332 1.399.34-1.399h.43L18.338 7h-.318l-.034-1.403L17.658 7h-.255l-.34-1.408L17.032 7h-.321l.04-2.019zM18.833 4.981h.688c.396 0 .595.191.595.573 0 .366-.209.549-.626.548h-.234v.897h-.425l.003-2.019zm.587.863a.328.328 0 0 0 .234-.064.325.325 0 0 0 .061-.228.663.663 0 0 0-.02-.183c-.006-.02-.017-.039-.031-.055s-.033-.03-.054-.041a.449.449 0 0 0-.189-.032h-.165v.603h.165zM20.727 4.981h.456L21.651 7h-.396l-.093-.466h-.407L20.66 7h-.402l.468-2.019zm.39 1.32-.159-.848-.159.848h.318zM22.029 4.981h.297l.569 1.152V4.981h.352V7h-.283l-.572-1.202V7h-.364l.001-2.019zM24.074 6.23l-.473-1.246h.398l.289.801.271-.801h.39l-.467 1.246V7h-.408v-.77zM14.012 7.883v.106h-.346v.82h-.145v-.82h-.348v-.106h.84zM15.098 8.809h-.112c-.011.001-.023-.003-.031-.009s-.015-.013-.019-.021l-.1-.22h-.481l-.1.22a.064.064 0 0 1-.015.025.056.056 0 0 1-.031.009h-.112l.425-.926h.148l.43.922zm-.703-.344h.401l-.17-.377a.604.604 0 0 1-.031-.087l-.016.049-.015.039-.168.376zM15.83 8.718h.08a.507.507 0 0 0 .129-.028l.057-.023v-.208h-.17c-.004 0-.008 0-.012-.002s-.008-.003-.011-.006c-.003-.002-.005-.005-.006-.008l-.002-.009v-.071h.33v.355a.62.62 0 0 1-.179.076.76.76 0 0 1-.106.019 1.287 1.287 0 0 1-.124.006.644.644 0 0 1-.214-.034.52.52 0 0 1-.17-.097.447.447 0 0 1-.11-.147.458.458 0 0 1-.039-.192.421.421 0 0 1 .148-.341.507.507 0 0 1 .17-.096.7.7 0 0 1 .228-.034.673.673 0 0 1 .219.031.497.497 0 0 1 .159.085l-.041.057c-.003.005-.008.01-.014.013s-.012.005-.019.005a.056.056 0 0 1-.026-.007.59.59 0 0 1-.042-.022.497.497 0 0 0-.243-.054.478.478 0 0 0-.164.026.32.32 0 0 0-.204.188.433.433 0 0 0 0 .309.345.345 0 0 0 .209.19.475.475 0 0 0 .168.018zM17.184 8.703h.464v.106h-.606v-.926h.145l-.003.821zM18.13 8.809h-.145v-.926h.145v.926zM18.67 7.887c.009.004.016.01.022.017l.621.698V7.879h.127v.93h-.073c-.011.001-.022-.001-.031-.005s-.017-.011-.023-.018l-.62-.697V8.81h-.121v-.926h.076a.1.1 0 0 1 .024.004zM20.509 7.883v.102h-.515v.306h.417v.098h-.417v.316h.515v.102h-.664v-.924h.664zM5.29 2.164l6.449 1.581v5.539L5.29 7.704v-5.54zm-.413-.472v6.282l7.275 1.784V3.477L4.877 1.692z"/>
            <path  d="M8.776 12.673 1.5 10.888V4.607l7.276 1.785v6.282z"/>
            <path d="m4.997 2.093 6.365 1.561-2.707 2.337-6.366-1.562 2.708-2.337zm-.12-.401L1.5 4.607l7.276 1.785 3.376-2.915-7.275-1.785zM9.185 12.32l2.967-2.562-2.967-.728v3.29z"/>
        </symbol>
        <symbol id="icon-smartphone" viewBox="0 0 9 15">
            <path d="M7.969 0H1.406C.631 0 0 .631 0 1.406v12.188C0 14.37.631 15 1.406 15h6.563c.775 0 1.406-.631 1.406-1.406V1.406C9.375.631 8.744 0 7.969 0zM1.406.938h6.563c.259 0 .469.21.469.469v9.844h-7.5V1.407c0-.259.21-.469.469-.469zm6.563 13.125H1.406a.469.469 0 0 1-.469-.469v-1.406h7.5v1.406c0 .259-.21.469-.469.469z"/>
            <path fill="#757575" style="fill:var(--color3, #757575)" d="M2.206 12.88c.183.171.183.448 0 .619s-.48.171-.663 0c-.183-.171-.183-.448 0-.619s.48-.171.663 0z"/>
        </symbol>
        <symbol id="icon-twitter" viewBox="0 0 15 15">
            <path d="M15 2.849a6.41 6.41 0 0 1-1.772.486 3.059 3.059 0 0 0 1.353-1.7 6.137 6.137 0 0 1-1.95.744 3.074 3.074 0 0 0-5.319 2.103c0 .244.021.478.071.701a8.701 8.701 0 0 1-6.338-3.217 3.08 3.08 0 0 0 .945 4.11 3.028 3.028 0 0 1-1.389-.379v.034a3.09 3.09 0 0 0 2.464 3.022c-.25.068-.523.101-.806.101a2.73 2.73 0 0 1-.582-.052 3.103 3.103 0 0 0 2.873 2.142 6.182 6.182 0 0 1-3.813 1.312c-.252 0-.494-.011-.736-.042a8.662 8.662 0 0 0 4.718 1.38c5.659 0 8.753-4.688 8.753-8.751 0-.136-.005-.267-.011-.398a6.129 6.129 0 0 0 1.541-1.597z"/>
        </symbol>
        <symbol id="icon-close" viewBox="0 0 32 32">
            <path d="M32 3.223l-3.223-3.223-12.777 12.777-12.777-12.777-3.223 3.223 12.777 12.777-12.777 12.777 3.223 3.223 12.777-12.777 12.777 12.777 3.223-3.223-12.777-12.777 12.777-12.777z"></path>
        </symbol>
        <symbol id="icon-email-black" viewBox="0 0 32 32">
            <path d="M26.667 5.333h-21.333c-1.467 0-2.653 1.2-2.653 2.667l-0.013 16c0 1.467 1.2 2.667 2.667 2.667h21.333c1.467 0 2.667-1.2 2.667-2.667v-16c0-1.467-1.2-2.667-2.667-2.667zM26.133 11l-9.427 5.893c-0.427 0.267-0.987 0.267-1.413 0l-9.427-5.893c-0.333-0.213-0.533-0.573-0.533-0.96 0-0.893 0.973-1.427 1.733-0.96l8.933 5.587 8.933-5.587c0.76-0.467 1.733 0.067 1.733 0.96 0 0.387-0.2 0.747-0.533 0.96z"></path>
        </symbol>
        <symbol id="icon-person-black" viewBox="0 0 32 32">
            <path d="M16 16c2.947 0 5.333-2.387 5.333-5.333s-2.387-5.333-5.333-5.333c-2.947 0-5.333 2.387-5.333 5.333s2.387 5.333 5.333 5.333zM16 18.667c-3.56 0-10.667 1.787-10.667 5.333v1.333c0 0.733 0.6 1.333 1.333 1.333h18.667c0.733 0 1.333-0.6 1.333-1.333v-1.333c0-3.547-7.107-5.333-10.667-5.333z"></path>
        </symbol>
        <symbol id="icon-phone-black" viewBox="0 0 32 32">
            <path d="M24.882 19.773l-3.268-0.373c-0.785-0.090-1.557 0.18-2.11 0.733l-2.367 2.367c-3.641-1.853-6.626-4.825-8.478-8.478l2.38-2.38c0.553-0.553 0.823-1.325 0.733-2.11l-0.373-3.242c-0.154-1.299-1.248-2.277-2.56-2.277h-2.226c-1.454 0-2.663 1.209-2.573 2.663 0.682 10.987 9.469 19.761 20.443 20.443 1.454 0.090 2.663-1.119 2.663-2.573v-2.226c0.013-1.3-0.965-2.393-2.264-2.547z"></path>
        </symbol>
        <symbol id="icon-vector" viewBox="0 0 42 32">
            <path fill="#fff" style="fill: var(--color1, #fff); stroke: var(--color1, #fff)" stroke="#fff" stroke-linejoin="miter" stroke-linecap="butt" stroke-miterlimit="4" stroke-width="0.64" d="M6.263 15.205l-0.22-0.21-3.307 3.132 11.651 11.114 24.477-23.351-3.285-3.134-21.192 20.197-8.124-7.75z"></path>
        </symbol>
        <symbol id="icon-send" viewBox="0 0 32 32">
            <path fill="#fff" style="fill: var(--color1, #fff)" d="M32 0l-32 18 10.227 3.788 15.773-14.788-11.998 16.186 0.010 0.004-0.012-0.004v8.814l5.735-6.691 7.265 2.691 5-28z"></path>
        </symbol>
    </defs>
</svg>